<svg width="76" height="16" viewBox="0 0 76 16" fill="none" xmlns="http://www.w3.org/2000/svg">
<path d="M7.91443 4.07873V6.07804H9.18169V6.85152H7.91443V8.75069H6.98556V4.07873H7.91443ZM1.42962 8.48135V4.63812H5.31084V5.39434H2.34813V7.71823C4.05048 7.71478 5.00697 7.66298 6.10849 7.42818L6.21553 8.18439C5.02769 8.42956 3.99523 8.48135 2.12368 8.48135H1.42962ZM2.30324 12.6975V9.20304H3.2252V10.1975H6.98556V9.20304H7.91443V12.6975H2.30324ZM3.2252 11.9413H6.98556V10.9399H3.2252V11.9413ZM16.9748 4.08564V10.5532H16.0494V8.27762H14.1364V9.09599H10.0964V4.66229H11.0252V6.1471H13.2179V4.66229H14.1364V5.64641H16.0494V4.08564H16.9748ZM11.0252 8.35014H13.2179V6.86533H11.0252V8.35014ZM11.26 12.6492V9.91782H12.1958V11.8895H17.1716V12.6492H11.26ZM14.1364 7.52141H16.0494V6.40262H14.1364V7.52141ZM20.9765 4.47238C22.2576 4.47238 23.1588 5.17334 23.1657 6.21616C23.1588 7.10704 22.4786 7.75967 21.4634 7.91505V8.69889C22.2369 8.65401 23.0173 8.58494 23.7424 8.4779L23.8149 9.1616C21.9779 9.49309 19.913 9.52417 18.4144 9.52417L18.3108 8.77141C18.9634 8.77141 19.73 8.76796 20.5345 8.74033V7.92196C19.4917 7.77693 18.7942 7.12086 18.8011 6.21616C18.7942 5.17334 19.6954 4.47238 20.9765 4.47238ZM19.547 12.6423V10.1906H20.4793V11.8791H25.5207V12.6423H19.547ZM19.6644 6.21616C19.6575 6.83771 20.2065 7.24171 20.9765 7.24862C21.7569 7.24171 22.2852 6.83771 22.2921 6.21616C22.2852 5.58425 21.7569 5.1837 20.9765 5.18025C20.2065 5.1837 19.6575 5.58425 19.6644 6.21616ZM24.2811 10.7776V4.08564H25.2065V6.97928H26.453V7.75967H25.2065V10.7776H24.2811ZM34.9748 11.009V11.779H26.9672V11.009H29.1529V9.45856H27.9409V6.67541H33.079V5.45649H27.9237V4.70028H33.9941V7.43163H28.8629V8.69889H34.1978V9.45856H32.8719V11.009H34.9748ZM30.0542 11.009H31.9603V9.45856H30.0542V11.009Z" fill="#121212"/>
<rect x="45.5" y="6" width="30" height="4" rx="2" fill="#FE6A00"/>
</svg>
