<svg width="56" height="41" viewBox="0 0 56 41" fill="none" xmlns="http://www.w3.org/2000/svg">
<rect x="0.5" y="1" width="55" height="39" rx="7.5" fill="#FAFAFA"/>
<rect x="0.5" y="1" width="55" height="39" rx="7.5" stroke="#818181"/>
<path d="M18 18.9565C18 16.7714 19.7714 15 21.9565 15V15C22.5895 15 23.1617 14.6227 23.4111 14.0408L23.7208 13.3182C24.1935 12.2152 25.2781 11.5 26.4782 11.5H28H29.5218C30.7219 11.5 31.8065 12.2152 32.2792 13.3182L32.5889 14.0408C32.8383 14.6227 33.4105 15 34.0435 15V15C36.2286 15 38 16.7714 38 18.9565V24C38 26.7614 35.7614 29 33 29H23C20.2386 29 18 26.7614 18 24V18.9565Z" stroke="#717171" stroke-width="1.5"/>
<circle cx="3" cy="3" r="3" transform="matrix(-1 0 0 1 31 18)" stroke="#717171" stroke-width="1.5"/>
</svg>
