<svg width="25" height="24" viewBox="0 0 25 24" fill="none" xmlns="http://www.w3.org/2000/svg">
<path d="M2.68652 10.9384C2.68652 9.71422 3.2471 8.55744 4.20795 7.79888L9.70795 3.45677C11.1612 2.30948 13.2119 2.30948 14.6651 3.45677L20.1651 7.79888C21.1259 8.55744 21.6865 9.71422 21.6865 10.9384V17.5C21.6865 19.7091 19.8957 21.5 17.6865 21.5H16.1865C15.6342 21.5 15.1865 21.0523 15.1865 20.5V17.5C15.1865 16.3954 14.2911 15.5 13.1865 15.5H11.1865C10.082 15.5 9.18652 16.3954 9.18652 17.5V20.5C9.18652 21.0523 8.73881 21.5 8.18652 21.5H6.68652C4.47738 21.5 2.68652 19.7091 2.68652 17.5L2.68652 10.9384Z" stroke="#A4A4A4" stroke-width="1.5"/>
</svg>
