<svg width="24" height="24" viewBox="0 0 24 24" fill="none" xmlns="http://www.w3.org/2000/svg">
<path fill-rule="evenodd" clip-rule="evenodd" d="M2 17.9261C2 17.3187 2.15479 16.7214 2.44975 16.1905L8.63566 5.05582C9.18399 4.06883 10.1381 3.3724 11.2452 3.15097C11.7435 3.05132 12.2565 3.05132 12.7548 3.15097C13.8619 3.3724 14.816 4.06883 15.3643 5.05582L21.5502 16.1905C21.8452 16.7214 22 17.3187 22 17.9261C22 19.8999 20.3999 21.5 18.4261 21.5H5.57391C3.60009 21.5 2 19.8999 2 17.9261ZM12 14.7501C11.5858 14.7501 11.25 14.4143 11.25 14.0001V10.0001C11.25 9.58585 11.5858 9.25006 12 9.25006C12.4142 9.25006 12.75 9.58585 12.75 10.0001V14.0001C12.75 14.4143 12.4142 14.7501 12 14.7501ZM12.75 17.5001C12.75 17.9143 12.4142 18.2501 12 18.2501C11.5858 18.2501 11.25 17.9143 11.25 17.5001V17.0001C11.25 16.5858 11.5858 16.2501 12 16.2501C12.4142 16.2501 12.75 16.5858 12.75 17.0001V17.5001Z" fill="#FE6A00"/>
</svg>
