<svg width="24" height="25" viewBox="0 0 24 25" fill="none" xmlns="http://www.w3.org/2000/svg">
<path d="M11.7453 1.76764C9.90737 3.7048 5.88446 4.02203 3.78004 3.924C3.62408 3.91674 3.48721 4.02739 3.46597 4.18206C2.83036 8.81132 4.02675 13.1031 4.76839 14.8273C4.80449 14.9112 4.87885 14.9723 4.96789 14.9928C8.27487 15.7544 10.6632 13.561 11.5459 12.2288C11.6042 12.1409 11.6057 12.027 11.5584 11.9327C9.55011 7.92896 11.5222 4.67861 13.1334 3.18299C13.3242 3.00592 13.2526 2.62477 13.0353 2.48157C12.739 2.28635 12.4805 2.02334 12.2892 1.78869C12.1551 1.62421 11.8914 1.61368 11.7453 1.76764Z" fill="white"/>
<path d="M12.2612 12.9787C10.0843 15.9071 7.4192 16.408 5.89997 16.2557C5.64598 16.2302 5.43075 16.4949 5.54804 16.7216C7.31349 20.1339 10.4193 22.2496 11.9297 22.9631C12.0088 23.0005 12.0996 22.9991 12.1781 22.9606C14.9843 21.5869 17.2102 18.8022 18.0534 17.4582C18.0988 17.3859 18.1092 17.2966 18.0828 17.2154C17.008 13.9182 14.0277 12.9474 12.5121 12.8567C12.4137 12.8509 12.32 12.8996 12.2612 12.9787Z" fill="white"/>
<path d="M14.6825 3.34903C10.8069 6.10229 11.5844 9.95489 12.5298 11.6895C12.5785 11.7789 12.6725 11.8331 12.7742 11.8396C15.8419 12.0342 17.7183 14.1174 18.511 15.5478C18.6357 15.7728 18.9752 15.7824 19.0808 15.5478C20.8152 11.694 20.8443 6.59805 20.6091 4.18915C20.5937 4.03061 20.4545 3.91611 20.2954 3.92317C17.8488 4.03165 15.8181 3.59128 14.9559 3.30937C14.8639 3.2793 14.7614 3.29299 14.6825 3.34903Z" fill="white"/>
</svg>
