<svg width="16" height="16" viewBox="0 0 16 16" fill="none" xmlns="http://www.w3.org/2000/svg">
<g clip-path="url(#clip0_1135_21899)">
<path fill-rule="evenodd" clip-rule="evenodd" d="M3.28582 3.28602C3.54617 3.02567 3.96828 3.02567 4.22863 3.28602L7.99987 7.05725L11.7711 3.28602C12.0315 3.02567 12.4536 3.02567 12.7139 3.28602C12.9743 3.54637 12.9743 3.96848 12.7139 4.22882L8.94268 8.00006L12.7139 11.7713C12.9743 12.0316 12.9743 12.4538 12.7139 12.7141C12.4536 12.9745 12.0315 12.9745 11.7711 12.7141L7.99987 8.94287L4.22863 12.7141C3.96828 12.9745 3.54617 12.9745 3.28582 12.7141C3.02547 12.4538 3.02547 12.0316 3.28582 11.7713L7.05706 8.00006L3.28582 4.22882C3.02547 3.96848 3.02547 3.54637 3.28582 3.28602Z" fill="white"/>
</g>
<defs>
<clipPath id="clip0_1135_21899">
<rect width="16" height="16" fill="white"/>
</clipPath>
</defs>
</svg>
