<svg width="25" height="24" viewBox="0 0 25 24" fill="none" xmlns="http://www.w3.org/2000/svg">
<path d="M22.9067 16.74V4.67001C22.9067 3.47001 21.9267 2.58001 20.7367 2.68001H20.6767C18.5767 2.86001 15.3867 3.93001 13.6067 5.05001L13.4367 5.16001C13.1467 5.34001 12.6667 5.34001 12.3767 5.16001L12.1267 5.01001C10.3467 3.90001 7.16674 2.84001 5.06674 2.67001C3.87674 2.57001 2.90674 3.47001 2.90674 4.66001V16.74C2.90674 17.7 3.68674 18.6 4.64674 18.72L4.93674 18.76C7.10674 19.05 10.4567 20.15 12.3767 21.2L12.4167 21.22C12.6867 21.37 13.1167 21.37 13.3767 21.22C15.2967 20.16 18.6567 19.05 20.8367 18.76L21.1667 18.72C22.1267 18.6 22.9067 17.7 22.9067 16.74Z" stroke="#A4A4A4" stroke-width="1.5" stroke-linecap="round" stroke-linejoin="round"/>
<path d="M12.9067 5.48999V20.49" stroke="#A4A4A4" stroke-width="1.5" stroke-linecap="round" stroke-linejoin="round"/>
<path d="M8.65674 8.48999H6.40674" stroke="#A4A4A4" stroke-width="1.5" stroke-linecap="round" stroke-linejoin="round"/>
<path d="M9.40674 11.49H6.40674" stroke="#A4A4A4" stroke-width="1.5" stroke-linecap="round" stroke-linejoin="round"/>
</svg>
