<svg width="24" height="25" viewBox="0 0 24 25" fill="none" xmlns="http://www.w3.org/2000/svg">
<path fill-rule="evenodd" clip-rule="evenodd" d="M5.40613 8.43898C6.17513 6.53698 7.10013 5.22498 9.19413 5.22498H14.8071C16.8991 5.22498 17.8251 6.53698 18.5951 8.43898L19.3641 10.474C19.9371 10.4809 20.4635 10.7911 20.7471 11.289C20.914 11.5726 21.0014 11.8959 21.0001 12.225V14.849C21.0076 15.4617 20.6983 16.0348 20.1821 16.365C19.9367 16.5178 19.6533 16.5989 19.3641 16.599H4.63613C4.34696 16.5989 4.06359 16.5178 3.81813 16.365C3.30195 16.0348 2.99269 15.4617 3.00013 14.849V12.225C2.99905 11.8963 3.08644 11.5733 3.25313 11.29C3.53677 10.7921 4.06314 10.4819 4.63613 10.475L5.40613 8.43898Z" stroke="black" stroke-width="1.5" stroke-linecap="round" stroke-linejoin="round"/>
<path d="M7.02308 16.6C7.02308 16.1858 6.6873 15.85 6.27308 15.85C5.85887 15.85 5.52308 16.1858 5.52308 16.6H7.02308ZM6.27308 17.913H5.52308C5.52308 17.921 5.52321 17.929 5.52347 17.937L6.27308 17.913ZM5.04508 19.225L5.01895 19.9745C5.03618 19.9751 5.05342 19.9752 5.07064 19.9746L5.04508 19.225ZM3.81808 17.912L4.56768 17.9366C4.56795 17.9284 4.56808 17.9202 4.56808 17.912H3.81808ZM4.56808 16.365C4.56808 15.9508 4.2323 15.615 3.81808 15.615C3.40387 15.615 3.06808 15.9508 3.06808 16.365H4.56808ZM4.63608 9.724C4.22187 9.724 3.88608 10.0598 3.88608 10.474C3.88608 10.8882 4.22187 11.224 4.63608 11.224V9.724ZM19.3641 11.224C19.7783 11.224 20.1141 10.8882 20.1141 10.474C20.1141 10.0598 19.7783 9.724 19.3641 9.724V11.224ZM18.4781 16.599C18.4781 16.1848 18.1423 15.849 17.7281 15.849C17.3139 15.849 16.9781 16.1848 16.9781 16.599H18.4781ZM17.7281 17.912L18.4766 17.9598C18.4776 17.9439 18.4781 17.9279 18.4781 17.912H17.7281ZM18.3181 19.0423L18.7068 18.4009L18.3181 19.0423ZM19.5931 19.0423L19.2044 18.4009L19.5931 19.0423ZM20.1831 17.912H19.4331C19.4331 17.9279 19.4336 17.9439 19.4346 17.9598L20.1831 17.912ZM20.9331 16.365C20.9331 15.9508 20.5973 15.615 20.1831 15.615C19.7689 15.615 19.4331 15.9508 19.4331 16.365H20.9331ZM6.00008 12.975C5.58587 12.975 5.25008 13.3108 5.25008 13.725C5.25008 14.1392 5.58587 14.475 6.00008 14.475V12.975ZM7.00008 14.475C7.4143 14.475 7.75008 14.1392 7.75008 13.725C7.75008 13.3108 7.4143 12.975 7.00008 12.975V14.475ZM17.0001 12.975C16.5859 12.975 16.2501 13.3108 16.2501 13.725C16.2501 14.1392 16.5859 14.475 17.0001 14.475V12.975ZM18.0001 14.475C18.4143 14.475 18.7501 14.1392 18.7501 13.725C18.7501 13.3108 18.4143 12.975 18.0001 12.975V14.475ZM5.52308 16.6V17.913H7.02308V16.6H5.52308ZM5.52347 17.937C5.53269 18.2247 5.30723 18.4656 5.01952 18.4754L5.07064 19.9746C6.18509 19.9366 7.05841 19.0035 7.0227 17.889L5.52347 17.937ZM5.07121 18.4755C4.7835 18.4654 4.55822 18.2244 4.56768 17.9366L3.06849 17.8874C3.03187 19.0019 3.90449 19.9357 5.01895 19.9745L5.07121 18.4755ZM4.56808 17.912V16.365H3.06808V17.912H4.56808ZM4.63608 11.224H19.3641V9.724H4.63608V11.224ZM16.9781 16.599V17.912H18.4781V16.599H16.9781ZM16.9796 17.8642C16.9326 18.6003 17.2986 19.3014 17.9294 19.6837L18.7068 18.4009C18.5539 18.3082 18.4652 18.1382 18.4766 17.9598L16.9796 17.8642ZM17.9294 19.6837C18.5601 20.0659 19.3511 20.0659 19.9818 19.6837L19.2044 18.4009C19.0515 18.4935 18.8597 18.4935 18.7068 18.4009L17.9294 19.6837ZM19.9818 19.6837C20.6126 19.3014 20.9786 18.6003 20.9316 17.8642L19.4346 17.9598C19.446 18.1382 19.3573 18.3082 19.2044 18.4009L19.9818 19.6837ZM20.9331 17.912V16.365H19.4331V17.912H20.9331ZM6.00008 14.475H7.00008V12.975H6.00008V14.475ZM17.0001 14.475H18.0001V12.975H17.0001V14.475Z" fill="black"/>
</svg>
