<svg width="18" height="18" viewBox="0 0 18 18" fill="none" xmlns="http://www.w3.org/2000/svg">
<g clip-path="url(#clip0_1077_4950)">
<path d="M7.65972 2.87345L1.35478 13.3991C1.22479 13.6242 1.15601 13.8794 1.15528 14.1394C1.15455 14.3993 1.2219 14.6549 1.35063 14.8808C1.47936 15.1066 1.66499 15.2948 1.88903 15.4266C2.11308 15.5585 2.36774 15.6293 2.62768 15.6322H15.2376C15.4975 15.6293 15.7522 15.5585 15.9762 15.4266C16.2003 15.2948 16.3859 15.1066 16.5146 14.8808C16.6433 14.6549 16.7107 14.3993 16.71 14.1394C16.7092 13.8794 16.6405 13.6242 16.5105 13.3991L10.2055 2.87345C10.0728 2.65468 9.88597 2.47381 9.66301 2.34828C9.44004 2.22275 9.18849 2.1568 8.93262 2.1568C8.67675 2.1568 8.4252 2.22275 8.20223 2.34828C7.97927 2.47381 7.79242 2.65468 7.65972 2.87345Z" stroke="#D60000" stroke-width="1.48877" stroke-linecap="round" stroke-linejoin="round"/>
<path d="M8.93262 6.69946V9.677" stroke="#D60000" stroke-width="1.48877" stroke-linecap="round" stroke-linejoin="round"/>
<path d="M8.93262 12.6545H8.93933" stroke="#D60000" stroke-width="1.48877" stroke-linecap="round" stroke-linejoin="round"/>
</g>
<defs>
<clipPath id="clip0_1077_4950">
<rect width="17.8652" height="17.8652" fill="white"/>
</clipPath>
</defs>
</svg>
