<svg width="16" height="16" viewBox="0 0 16 16" fill="none" xmlns="http://www.w3.org/2000/svg">
<rect width="16" height="16" rx="8" fill="#A4A4A4"/>
<path d="M10.7461 9.80469H9.75391V7.25781H8.58984V6.45312H9.75391V4.61719H10.7461V9.80469ZM10.918 11.5938H6.02734V9.35156H7.02734V10.7969H10.918V11.5938ZM7.44141 6.00781C7.44141 6.29167 7.5 6.56901 7.61719 6.83984C7.73698 7.11068 7.91927 7.35547 8.16406 7.57422C8.40885 7.79297 8.71224 7.96094 9.07422 8.07812L8.58203 8.86719C8.19922 8.74479 7.86979 8.5612 7.59375 8.31641C7.32031 8.07161 7.10286 7.78255 6.94141 7.44922C6.77995 7.81901 6.55469 8.13802 6.26562 8.40625C5.97917 8.67448 5.63151 8.8776 5.22266 9.01562L4.71484 8.20312C5.08984 8.08594 5.40495 7.91276 5.66016 7.68359C5.91797 7.45443 6.10938 7.19531 6.23438 6.90625C6.35938 6.61458 6.42318 6.3125 6.42578 6V5.89062H4.99609V5.09375H8.85547V5.89062H7.44141V6.00781Z" fill="white"/>
</svg>
