<svg width="59" height="16" viewBox="0 0 59 16" fill="none" xmlns="http://www.w3.org/2000/svg">
<path d="M4.42096 5.90193C4.42096 7.04144 5.25659 8.10497 6.61018 8.5297L6.13712 9.25829C5.12883 8.9268 4.36571 8.23619 3.96861 7.35912C3.57496 8.31215 2.79803 9.06492 1.75521 9.43439L1.27524 8.69889C2.63919 8.23619 3.47828 7.10359 3.48518 5.90193V5.52555H1.51695V4.77624H6.34775V5.52555H4.42096V5.90193ZM2.71516 12.6492V9.87293H3.64748V11.8895H8.69582V12.6492H2.71516ZM7.51143 10.4738V4.08564H8.44029V10.4738H7.51143ZM17.2797 4.07873V9.60014H16.4026V7.15539H15.3874V9.29627H14.5207V4.24793H15.3874V6.39227H16.4026V4.07873H17.2797ZM9.77624 5.81215V5.08011H11.5373V4.14779H12.4558V5.08011H14.1996V5.81215H9.77624ZM10.1181 7.72859C10.1146 6.81354 10.895 6.21961 11.9931 6.21961C13.1084 6.21961 13.8819 6.81354 13.8888 7.72859C13.8819 8.63329 13.1084 9.22376 11.9931 9.22376C10.895 9.22376 10.1146 8.63329 10.1181 7.72859ZM10.9434 7.72859C10.9434 8.22238 11.3715 8.55041 11.9931 8.54696C12.6215 8.55041 13.0463 8.22238 13.0497 7.72859C13.0463 7.22445 12.6215 6.89986 11.9931 6.89986C11.3715 6.89986 10.9434 7.22445 10.9434 7.72859ZM11.3888 11.2783C11.3819 10.2873 12.5007 9.7279 14.3584 9.7279C16.2127 9.7279 17.328 10.2873 17.328 11.2783C17.328 12.2555 16.2127 12.8149 14.3584 12.8149C12.5007 12.8149 11.3819 12.2555 11.3888 11.2783ZM12.3108 11.2783C12.3039 11.8066 13.0532 12.107 14.3584 12.1001C15.6602 12.107 16.3992 11.8066 16.4026 11.2783C16.3992 10.7258 15.6602 10.4323 14.3584 10.4392C13.0532 10.4323 12.3039 10.7258 12.3108 11.2783Z" fill="#121212"/>
<rect x="28.5" y="6" width="30" height="4" rx="2" fill="#E7E7E7"/>
</svg>
