<svg width="24" height="25" viewBox="0 0 24 25" fill="none" xmlns="http://www.w3.org/2000/svg">
<path d="M3.77852 18.9886L3.18292 18.7781H3.18292L3.77852 18.9886ZM5.06823 20.2783L5.27869 20.8739H5.27869L5.06823 20.2783ZM7.19333 19.5274L6.98287 18.9318L7.19333 19.5274ZM7.9221 19.597L7.61583 20.1495L7.9221 19.597ZM4.50462 16.0716L3.94284 16.3605L4.50462 16.0716ZM4.56044 16.7757L3.96484 16.5653L4.56044 16.7757ZM4.20884 12.2255C4.20884 7.92266 7.69695 4.43455 11.9998 4.43455V3.17116C6.9992 3.17116 2.94545 7.22491 2.94545 12.2255H4.20884ZM5.0664 15.7828C4.51842 14.7171 4.20884 13.5083 4.20884 12.2255H2.94545C2.94545 13.7139 3.30512 15.1203 3.94284 16.3605L5.0664 15.7828ZM4.37413 19.199L5.15605 16.9862L3.96484 16.5653L3.18292 18.7781L4.37413 19.199ZM4.85777 19.6827C4.55735 19.7888 4.26797 19.4994 4.37413 19.199L3.18292 18.7781C2.72292 20.0799 3.9769 21.3339 5.27869 20.8739L4.85777 19.6827ZM6.98287 18.9318L4.85777 19.6827L5.27869 20.8739L7.40379 20.123L6.98287 18.9318ZM11.9998 20.0164C10.6303 20.0164 9.34523 19.6636 8.22837 19.0445L7.61583 20.1495C8.91534 20.8698 10.4106 21.2798 11.9998 21.2798V20.0164ZM19.7907 12.2255C19.7907 16.5283 16.3026 20.0164 11.9998 20.0164V21.2798C17.0003 21.2798 21.0541 17.226 21.0541 12.2255H19.7907ZM11.9998 4.43455C16.3026 4.43455 19.7907 7.92266 19.7907 12.2255H21.0541C21.0541 7.22491 17.0003 3.17116 11.9998 3.17116V4.43455ZM7.40379 20.123C7.45895 20.1035 7.53632 20.1054 7.61583 20.1495L8.22837 19.0445C7.86149 18.8411 7.40894 18.7812 6.98287 18.9318L7.40379 20.123ZM3.94284 16.3605C3.98273 16.4381 3.9836 16.5122 3.96484 16.5653L5.15605 16.9862C5.30081 16.5765 5.25095 16.1417 5.0664 15.7828L3.94284 16.3605Z" fill="white"/>
<circle cx="7.83066" cy="12.2672" r="1.05283" fill="white"/>
<circle cx="12.0421" cy="12.2671" r="1.05283" fill="white"/>
<circle cx="16.253" cy="12.2671" r="1.05283" fill="white"/>
</svg>
