<svg width="24" height="25" viewBox="0 0 24 25" fill="none" xmlns="http://www.w3.org/2000/svg">
<path d="M2 10.6814C2 8.49634 3.77136 6.72498 5.95645 6.72498V6.72498C6.58953 6.72498 7.16169 6.34769 7.41107 5.7658L7.72075 5.04322C8.19349 3.94017 9.2781 3.22498 10.4782 3.22498H12H13.5218C14.7219 3.22498 15.8065 3.94017 16.2792 5.04322L16.5889 5.7658C16.8383 6.34769 17.4105 6.72498 18.0435 6.72498V6.72498C20.2286 6.72498 22 8.49634 22 10.6814V15.725C22 18.4864 19.7614 20.725 17 20.725H7C4.23858 20.725 2 18.4864 2 15.725V10.6814Z" stroke="#121212" stroke-width="1.5"/>
<circle cx="3" cy="3" r="3" transform="matrix(-1 0 0 1 15 9.72498)" stroke="#121212" stroke-width="1.5"/>
</svg>
