<svg width="24" height="24" viewBox="0 0 24 24" fill="none" xmlns="http://www.w3.org/2000/svg">
<path d="M22 16.74V4.67001C22 3.47001 21.02 2.58001 19.83 2.68001H19.77C17.67 2.86001 14.48 3.93001 12.7 5.05001L12.53 5.16001C12.24 5.34001 11.76 5.34001 11.47 5.16001L11.22 5.01001C9.44 3.90001 6.26 2.84001 4.16 2.67001C2.97 2.57001 2 3.47001 2 4.66001V16.74C2 17.7 2.78 18.6 3.74 18.72L4.03 18.76C6.2 19.05 9.55 20.15 11.47 21.2L11.51 21.22C11.78 21.37 12.21 21.37 12.47 21.22C14.39 20.16 17.75 19.05 19.93 18.76L20.26 18.72C21.22 18.6 22 17.7 22 16.74Z" stroke="#FE6A00" stroke-width="1.5" stroke-linecap="round" stroke-linejoin="round"/>
<path fill-rule="evenodd" clip-rule="evenodd" d="M22 4.67001V16.74C22 17.7 21.22 18.6 20.26 18.72L19.93 18.76C17.75 19.05 14.39 20.16 12.47 21.22C12.21 21.37 11.78 21.37 11.51 21.22L11.47 21.2C9.55 20.15 6.2 19.05 4.03 18.76L3.74 18.72C2.78 18.6 2 17.7 2 16.74V4.66001C2 3.47001 2.97 2.57001 4.16 2.67001C6.26 2.84001 9.44 3.90001 11.22 5.01001L11.47 5.16001C11.76 5.34001 12.24 5.34001 12.53 5.16001L12.7 5.05001C14.48 3.93001 17.67 2.86001 19.77 2.68001H19.83C21.02 2.58001 22 3.47001 22 4.67001ZM5.5 7.73999C5.08579 7.73999 4.75 8.07578 4.75 8.48999C4.75 8.9042 5.08579 9.23999 5.5 9.23999H7.75C8.16421 9.23999 8.5 8.9042 8.5 8.48999C8.5 8.07578 8.16421 7.73999 7.75 7.73999H5.5ZM4.75 11.49C4.75 11.0758 5.08579 10.74 5.5 10.74H8.5C8.91421 10.74 9.25 11.0758 9.25 11.49C9.25 11.9042 8.91421 12.24 8.5 12.24H5.5C5.08579 12.24 4.75 11.9042 4.75 11.49ZM12.75 7.06415C12.75 6.64993 12.4142 6.31415 12 6.31415C11.5858 6.31415 11.25 6.64993 11.25 7.06415V19.1895C11.25 19.6037 11.5858 19.9395 12 19.9395C12.4142 19.9395 12.75 19.6037 12.75 19.1895V7.06415Z" fill="#FE6A00"/>
</svg>
