<svg width="17" height="16" viewBox="0 0 17 16" fill="none" xmlns="http://www.w3.org/2000/svg">
<path fill-rule="evenodd" clip-rule="evenodd" d="M8.8654 1.33331C9.23359 1.33331 9.53206 1.63179 9.53206 1.99998V7.33331H14.8654C15.2336 7.33331 15.5321 7.63179 15.5321 7.99998C15.5321 8.36817 15.2336 8.66665 14.8654 8.66665H9.53206V14C9.53206 14.3682 9.23359 14.6666 8.8654 14.6666C8.49721 14.6666 8.19873 14.3682 8.19873 14L8.19873 8.66665H2.8654C2.49721 8.66665 2.19873 8.36817 2.19873 7.99998C2.19873 7.63179 2.49721 7.33331 2.8654 7.33331H8.19873V1.99998C8.19873 1.63179 8.49721 1.33331 8.8654 1.33331Z" fill="white"/>
</svg>
