<svg width="24" height="25" viewBox="0 0 24 25" fill="none" xmlns="http://www.w3.org/2000/svg">
<path fill-rule="evenodd" clip-rule="evenodd" d="M18.9995 12.2255C18.9995 16.0915 15.8655 19.2255 11.9995 19.2255C11.9995 15.9115 12.9995 11.7255 17.9995 11.2255H18.9285C18.9758 11.5567 18.9996 11.8909 18.9995 12.2255V12.2255Z" stroke="black" stroke-width="1.5" stroke-linecap="round" stroke-linejoin="round"/>
<path d="M6.07396 10.4791C5.6618 10.4379 5.29427 10.7386 5.25305 11.1508C5.21184 11.5629 5.51255 11.9305 5.9247 11.9717L6.07396 10.4791ZM11.9993 19.2254L11.9992 19.9754C12.1982 19.9754 12.389 19.8964 12.5296 19.7558C12.6703 19.6151 12.7493 19.4243 12.7493 19.2254H11.9993ZM5.00809 12.5592L4.25895 12.595L5.00809 12.5592ZM11.3325 5.25732L11.2609 4.51074L11.3325 5.25732ZM18.186 11.3325C18.2452 11.7425 18.6255 12.0269 19.0355 11.9677C19.4454 11.9085 19.7298 11.5282 19.6706 11.1183L18.186 11.3325ZM5.99933 11.9754C6.41355 11.9754 6.74933 11.6396 6.74933 11.2254C6.74933 10.8112 6.41355 10.4754 5.99933 10.4754V11.9754ZM5.07033 10.4754C4.65612 10.4754 4.32033 10.8112 4.32033 11.2254C4.32033 11.6396 4.65612 11.9754 5.07033 11.9754V10.4754ZM5.99933 10.4754C5.58512 10.4754 5.24933 10.8112 5.24933 11.2254C5.24933 11.6396 5.58512 11.9754 5.99933 11.9754V10.4754ZM17.9993 11.9754C18.4135 11.9754 18.7493 11.6396 18.7493 11.2254C18.7493 10.8112 18.4135 10.4754 17.9993 10.4754V11.9754ZM5.9247 11.9717C8.18525 12.1977 9.4702 13.2315 10.224 14.5437C11.0044 15.9022 11.2493 17.6243 11.2493 19.2254H12.7493C12.7493 17.5125 12.4943 15.4846 11.5247 13.7966C10.5285 12.0623 8.81342 10.7531 6.07396 10.4791L5.9247 11.9717ZM11.9994 18.4754C8.66379 18.475 5.91631 15.8553 5.75724 12.5235L4.25895 12.595C4.4562 16.7265 7.86307 19.9749 11.9992 19.9754L11.9994 18.4754ZM5.75724 12.5235C5.59817 9.19162 8.08357 6.32206 11.404 6.0039L11.2609 4.51074C7.1436 4.90525 4.0617 8.46351 4.25895 12.595L5.75724 12.5235ZM11.404 6.0039C14.7244 5.68574 17.7095 8.03113 18.186 11.3325L19.6706 11.1183C19.0798 7.0245 15.3782 4.11622 11.2609 4.51074L11.404 6.0039ZM5.99933 10.4754H5.07033V11.9754H5.99933V10.4754ZM5.99933 11.9754H17.9993V10.4754H5.99933V11.9754Z" fill="black"/>
</svg>
