<svg width="16" height="16" viewBox="0 0 16 16" fill="none" xmlns="http://www.w3.org/2000/svg">
<rect width="16" height="16" rx="8" fill="#A4A4A4"/>
<path d="M10.9023 6.14844H5.06641V5.34375H7.49609V4.60156H8.48828V5.34375H10.9023V6.14844ZM11.2617 10.0156H8.48828V11.7266H7.49609V10.0156H4.75391V9.20312H11.2617V10.0156ZM7.99609 6.42188C8.50391 6.42188 8.9401 6.46875 9.30469 6.5625C9.67188 6.65625 9.95312 6.79427 10.1484 6.97656C10.3464 7.15885 10.4466 7.38021 10.4492 7.64062C10.4466 7.90104 10.3464 8.1224 10.1484 8.30469C9.95312 8.48698 9.67188 8.625 9.30469 8.71875C8.9401 8.8125 8.50391 8.85938 7.99609 8.85938C7.48307 8.85938 7.04167 8.8125 6.67188 8.71875C6.30469 8.625 6.02344 8.48698 5.82812 8.30469C5.63542 8.1224 5.54036 7.90104 5.54297 7.64062C5.54036 7.38021 5.63542 7.15885 5.82812 6.97656C6.02344 6.79427 6.30469 6.65625 6.67188 6.5625C7.04167 6.46875 7.48307 6.42188 7.99609 6.42188ZM7.99609 7.15625C7.51432 7.16146 7.15625 7.20312 6.92188 7.28125C6.6901 7.35938 6.57422 7.47917 6.57422 7.64062C6.57422 7.79948 6.69141 7.91927 6.92578 8C7.16276 8.07812 7.51953 8.11719 7.99609 8.11719C8.9388 8.11719 9.41016 7.95833 9.41016 7.64062C9.41016 7.47917 9.29297 7.35938 9.05859 7.28125C8.82422 7.20312 8.47005 7.16146 7.99609 7.15625Z" fill="white"/>
</svg>
