<svg width="17" height="16" viewBox="0 0 17 16" fill="none" xmlns="http://www.w3.org/2000/svg">
<g clip-path="url(#clip0_1135_9032)">
<path fill-rule="evenodd" clip-rule="evenodd" d="M4.15106 3.28602C4.41141 3.02567 4.83352 3.02567 5.09387 3.28602L8.8651 7.05725L12.6363 3.28602C12.8967 3.02567 13.3188 3.02567 13.5791 3.28602C13.8395 3.54637 13.8395 3.96848 13.5791 4.22882L9.80791 8.00006L13.5791 11.7713C13.8395 12.0316 13.8395 12.4538 13.5791 12.7141C13.3188 12.9745 12.8967 12.9745 12.6363 12.7141L8.8651 8.94287L5.09387 12.7141C4.83352 12.9745 4.41141 12.9745 4.15106 12.7141C3.89071 12.4538 3.89071 12.0316 4.15106 11.7713L7.92229 8.00006L4.15106 4.22882C3.89071 3.96848 3.89071 3.54637 4.15106 3.28602Z" fill="#121212"/>
</g>
<defs>
<clipPath id="clip0_1135_9032">
<rect width="16" height="16" fill="white" transform="translate(0.865234)"/>
</clipPath>
</defs>
</svg>
